<svg xmlns="http://www.w3.org/2000/svg" xmlns:svg="http://www.w3.org/2000/svg" id="Layer_1" width="512" height="512" x="0" y="0" version="1.1" viewBox="0 0 267 267" xml:space="preserve" style="enable-background:new 0 0 267 267"><defs id="defs107"><rect id="rect4772" width="36.471" height="78.347" x="115.516" y="150.407"/></defs><g id="g102"><g id="g6" style="fill:#1c7287;fill-opacity:1"><line style="fill:#1c7287;fill-opacity:1" id="line2" x1="83.5" x2="83.5" y1="15" y2="44"/><path style="fill:#1c7287;fill-opacity:1" id="path4" d="m 83.5,59 c -8.284,0 -15,-6.716 -15,-15 V 15 c 0,-8.284 6.716,-15 15,-15 8.284,0 15,6.716 15,15 v 29 c 0,8.284 -6.716,15 -15,15 z"/></g><line style="fill:#fff" id="line8" x1="133.5" x2="133.5" y1="15" y2="44"/><path style="fill:#1c7287" id="path10" d="m 133.5,59 c -8.284,0 -15,-6.716 -15,-15 V 15 c 0,-8.284 6.716,-15 15,-15 8.284,0 15,6.716 15,15 v 29 c 0,8.284 -6.716,15 -15,15 z"/><g id="g20"><line style="fill:#fff" id="line16" x1="183.5" x2="183.5" y1="15" y2="44"/><path style="fill:#1c7287" id="path18" d="m 183.5,59 c -8.284,0 -15,-6.716 -15,-15 V 15 c 0,-8.284 6.716,-15 15,-15 8.284,0 15,6.716 15,15 v 29 c 0,8.284 -6.716,15 -15,15 z"/></g><g id="g28" style="fill:#1c7287;fill-opacity:1"><line style="fill:#1c7287;fill-opacity:1" id="line24" x1="83.5" x2="83.5" y1="223" y2="252"/><path style="fill:#1c7287;fill-opacity:1" id="path26" d="m 83.5,267 c -8.284,0 -15,-6.716 -15,-15 v -29 c 0,-8.284 6.716,-15 15,-15 8.284,0 15,6.716 15,15 v 29 c 0,8.284 -6.716,15 -15,15 z"/></g><line style="fill:#fff" id="line30" x1="133.5" x2="133.5" y1="223" y2="252"/><path style="fill:#1c7287" id="path32" d="m 133.5,267 c -8.284,0 -15,-6.716 -15,-15 v -29 c 0,-8.284 6.716,-15 15,-15 8.284,0 15,6.716 15,15 v 29 c 0,8.284 -6.716,15 -15,15 z"/><g id="g42"><line style="fill:#fff" id="line38" x1="183.5" x2="183.5" y1="223" y2="252"/><path style="fill:#1c7287" id="path40" d="m 183.5,267 c -8.284,0 -15,-6.716 -15,-15 v -29 c 0,-8.284 6.716,-15 15,-15 8.284,0 15,6.716 15,15 v 29 c 0,8.284 -6.716,15 -15,15 z"/></g><g id="g88"><g id="g66" style="fill:#1c7287;fill-opacity:1"><g id="g52" style="fill:#1c7287;fill-opacity:1"><line style="fill:#1c7287;fill-opacity:1" id="line48" x1="45.5" x2="16.5" y1="83" y2="83"/><path style="fill:#1c7287;fill-opacity:1" id="path50" d="M45.5,98h-29c-8.284,0-15-6.716-15-15s6.716-15,15-15h29c8.284,0,15,6.716,15,15 S53.784,98,45.5,98z"/></g><g id="g58" style="fill:#1c7287;fill-opacity:1"><line style="fill:#1c7287;fill-opacity:1" id="line54" x1="45.5" x2="16.5" y1="133" y2="133"/><path style="fill:#1c7287;fill-opacity:1" id="path56" d="M45.5,148h-29c-8.284,0-15-6.716-15-15s6.716-15,15-15h29c8.284,0,15,6.716,15,15 S53.784,148,45.5,148z"/></g><g id="g64" style="fill:#1c7287;fill-opacity:1"><line style="fill:#1c7287;fill-opacity:1" id="line60" x1="46.5" x2="17.5" y1="183" y2="183"/><path style="fill:#1c7287;fill-opacity:1" id="path62" d="M46.5,198h-29c-8.284,0-15-6.716-15-15s6.716-15,15-15h29c8.284,0,15,6.716,15,15 S54.784,198,46.5,198z"/></g></g><g id="g86"><g id="g72"><line style="fill:#fff" id="line68" x1="249.5" x2="220.5" y1="83" y2="83"/><path style="fill:#1c7287" id="path70" d="M249.5,98h-29c-8.284,0-15-6.716-15-15s6.716-15,15-15h29c8.284,0,15,6.716,15,15 S257.784,98,249.5,98z"/></g><g id="g78"><line style="fill:#fff" id="line74" x1="249.5" x2="220.5" y1="133" y2="133"/><path style="fill:#1c7287" id="path76" d="M249.5,148h-29c-8.284,0-15-6.716-15-15s6.716-15,15-15h29c8.284,0,15,6.716,15,15 S257.784,148,249.5,148z"/></g><g id="g84"><line style="fill:#fff" id="line80" x1="250.5" x2="221.5" y1="183" y2="183"/><path style="fill:#1c7287" id="path82" d="M250.5,198h-29c-8.284,0-15-6.716-15-15s6.716-15,15-15h29c8.284,0,15,6.716,15,15 S258.784,198,250.5,198z"/></g></g></g><g id="g92"><path style="fill:#c5c4c4;fill-opacity:1;stroke-width:.942816" id="path90" d="M 57.842664,36.503906 H 208.11437 c 11.7852,0 21.33875,9.553557 21.33875,21.338759 V 208.11437 c 0,11.7852 -9.55355,21.33875 -21.33875,21.33875 H 57.842664 c -11.785202,0 -21.338758,-9.55355 -21.338758,-21.33875 V 57.843608 c 0,-11.785202 9.553556,-21.339702 21.338758,-21.339702 z"/><text style="font-style:normal;font-weight:400;font-size:52.1484px;line-height:125%;font-family:sans-serif;letter-spacing:0;word-spacing:0;fill:#4b4b4b;fill-opacity:1;stroke:none;stroke-width:.521484px;stroke-linecap:butt;stroke-linejoin:miter;stroke-opacity:1" id="text11894" x="50.999" y="151.977" xml:space="preserve"><tspan style="font-style:normal;font-variant:normal;font-weight:700;font-stretch:normal;font-size:52.1484px;font-family:Ubuntu;-inkscape-font-specification:'Ubuntu Bold';fill:#4b4b4b;fill-opacity:1;stroke-width:.521484px" id="tspan25978" x="50.999" y="151.977">x86-64</tspan></text></g></g></svg>